<?xml version="1.0"?>
<svg xmlns="http://www.w3.org/2000/svg" xmlns:xlink="http://www.w3.org/1999/xlink" xmlns:svgjs="http://svgjs.com/svgjs" version="1.1" width="512" height="512" x="0" y="0" viewBox="0 0 30.156 30.157" style="enable-background:new 0 0 512 512" xml:space="preserve"><g>
<g xmlns="http://www.w3.org/2000/svg">
	<g>
		<path d="M3.946,16.708h2.138c0.299,0,0.542-0.244,0.542-0.542v-2.138c0-0.298-0.243-0.542-0.542-0.542H3.946    c-0.298,0-0.541,0.244-0.541,0.542v2.138C3.405,16.464,3.648,16.708,3.946,16.708z" fill="#ffffff" data-original="#000000" style=""/>
		<path d="M7.974,16.708h2.136c0.299,0,0.542-0.244,0.542-0.542v-2.138c0-0.298-0.243-0.542-0.542-0.542H7.974    c-0.299,0-0.542,0.244-0.542,0.542v2.138C7.432,16.464,7.675,16.708,7.974,16.708z" fill="#ffffff" data-original="#000000" style=""/>
		<path d="M11.998,16.708h2.137c0.299,0,0.542-0.244,0.542-0.542v-2.138c0-0.298-0.243-0.542-0.542-0.542h-2.137    c-0.299,0-0.542,0.244-0.542,0.542v2.138C11.456,16.464,11.699,16.708,11.998,16.708z" fill="#ffffff" data-original="#000000" style=""/>
		<path d="M16.023,16.708h2.137c0.299,0,0.542-0.244,0.542-0.542v-2.138c0-0.298-0.243-0.542-0.542-0.542h-2.137    c-0.299,0-0.542,0.244-0.542,0.542v2.138C15.481,16.464,15.725,16.708,16.023,16.708z" fill="#ffffff" data-original="#000000" style=""/>
		<path d="M20.051,16.708h2.135c0.299,0,0.541-0.244,0.541-0.542v-2.138c0-0.298-0.242-0.542-0.541-0.542h-2.135    c-0.3,0-0.543,0.244-0.543,0.542v2.138C19.508,16.464,19.751,16.708,20.051,16.708z" fill="#ffffff" data-original="#000000" style=""/>
		<path d="M26.212,13.487h-2.138c-0.299,0-0.542,0.244-0.542,0.542v2.138c0,0.298,0.243,0.542,0.542,0.542h2.138    c0.298,0,0.542-0.244,0.542-0.542v-2.138C26.754,13.73,26.51,13.487,26.212,13.487z" fill="#ffffff" data-original="#000000" style=""/>
		<path d="M6.084,21.571H3.946c-0.298,0-0.541,0.244-0.541,0.542v2.136c0,0.299,0.243,0.543,0.541,0.543h2.138    c0.299,0,0.542-0.244,0.542-0.543v-2.136C6.626,21.815,6.383,21.571,6.084,21.571z" fill="#ffffff" data-original="#000000" style=""/>
		<path d="M22.184,21.571H7.974c-0.299,0-0.542,0.244-0.542,0.542v2.136c0,0.299,0.243,0.543,0.542,0.543h14.211    c0.299,0,0.541-0.244,0.541-0.543v-2.136C22.727,21.815,22.482,21.571,22.184,21.571z" fill="#ffffff" data-original="#000000" style=""/>
		<path d="M26.212,21.571h-2.138c-0.299,0-0.542,0.244-0.542,0.542v2.136c0,0.299,0.243,0.543,0.542,0.543h2.138    c0.298,0,0.542-0.244,0.542-0.543v-2.136C26.754,21.815,26.51,21.571,26.212,21.571z" fill="#ffffff" data-original="#000000" style=""/>
		<path d="M9.985,17.512c-0.298,0-0.542,0.244-0.542,0.543v2.137c0,0.298,0.244,0.542,0.542,0.542h2.138    c0.298,0,0.542-0.244,0.542-0.542v-2.137c0-0.299-0.244-0.543-0.542-0.543H9.985z" fill="#ffffff" data-original="#000000" style=""/>
		<path d="M3.946,20.733h4.158c0.299,0,0.542-0.244,0.542-0.543v-2.137c0-0.298-0.243-0.541-0.542-0.541H3.946    c-0.298,0-0.541,0.243-0.541,0.541v2.137C3.405,20.489,3.648,20.733,3.946,20.733z" fill="#ffffff" data-original="#000000" style=""/>
		<path d="M26.212,17.512h-4.157c-0.3,0-0.543,0.244-0.543,0.543v2.137c0,0.298,0.243,0.542,0.543,0.542h4.157    c0.298,0,0.542-0.244,0.542-0.542v-2.137C26.754,17.756,26.51,17.512,26.212,17.512z" fill="#ffffff" data-original="#000000" style=""/>
		<path d="M13.469,18.055v2.137c0,0.298,0.244,0.542,0.542,0.542h2.137c0.298,0,0.541-0.244,0.541-0.542v-2.137    c0-0.299-0.243-0.543-0.541-0.543h-2.137C13.713,17.512,13.469,17.756,13.469,18.055z" fill="#ffffff" data-original="#000000" style=""/>
		<path d="M18.035,17.512c-0.298,0-0.542,0.244-0.542,0.543v2.137c0,0.298,0.244,0.542,0.542,0.542h2.139    c0.299,0,0.541-0.244,0.541-0.542v-2.137c0-0.299-0.242-0.543-0.541-0.543H18.035z" fill="#ffffff" data-original="#000000" style=""/>
		<path d="M27.758,10.778H15.602c-0.095-1.71-0.621-2.66-1.135-3.574c-0.522-0.926-1.015-1.802-1.015-3.585    c0-0.3-0.242-0.542-0.542-0.542c-0.3,0-0.541,0.242-0.541,0.542c0,2.067,0.587,3.11,1.154,4.116    c0.466,0.827,0.904,1.616,0.995,3.043H2.399c-1.323,0-2.399,1.076-2.399,2.4v11.504c0,1.321,1.076,2.397,2.399,2.397h25.359    c1.322,0,2.398-1.076,2.398-2.397V13.179C30.157,11.854,29.081,10.778,27.758,10.778z M29.074,24.682    c0,0.726-0.592,1.314-1.316,1.314H2.399c-0.726,0-1.316-0.59-1.316-1.314V13.179c0-0.727,0.591-1.317,1.316-1.317h25.359    c0.725,0,1.315,0.591,1.315,1.317L29.074,24.682L29.074,24.682z" fill="#ffffff" data-original="#000000" style=""/>
	</g>
</g>
<g xmlns="http://www.w3.org/2000/svg">
</g>
<g xmlns="http://www.w3.org/2000/svg">
</g>
<g xmlns="http://www.w3.org/2000/svg">
</g>
<g xmlns="http://www.w3.org/2000/svg">
</g>
<g xmlns="http://www.w3.org/2000/svg">
</g>
<g xmlns="http://www.w3.org/2000/svg">
</g>
<g xmlns="http://www.w3.org/2000/svg">
</g>
<g xmlns="http://www.w3.org/2000/svg">
</g>
<g xmlns="http://www.w3.org/2000/svg">
</g>
<g xmlns="http://www.w3.org/2000/svg">
</g>
<g xmlns="http://www.w3.org/2000/svg">
</g>
<g xmlns="http://www.w3.org/2000/svg">
</g>
<g xmlns="http://www.w3.org/2000/svg">
</g>
<g xmlns="http://www.w3.org/2000/svg">
</g>
<g xmlns="http://www.w3.org/2000/svg">
</g>
</g></svg>
